<?xml version="1.0" encoding="utf-8"?><!-- Uploaded to: SVG Repo, www.svgrepo.com, Generator: SVG Repo Mixer Tools -->
<svg fill="#000000" width="800px" height="800px" viewBox="0 0 24 24" id="add-file-12" data-name="Flat Line" xmlns="http://www.w3.org/2000/svg" class="icon flat-line"><path id="secondary" d="M12.5,19A6.5,6.5,0,0,0,6,12.5V7l4-4h9a1,1,0,0,1,1,1V20a1,1,0,0,1-1,1H12.18A6.3,6.3,0,0,0,12.5,19Z" style="fill: rgb(44, 169, 188); stroke-width: 2;"></path><path id="primary" d="M4,19H8M6,21V17m8-4h2m0-4H10" style="fill: none; stroke: rgb(0, 0, 0); stroke-linecap: round; stroke-linejoin: round; stroke-width: 2;"></path><path id="primary-2" data-name="primary" d="M6,13V7l4-4h9a1,1,0,0,1,1,1V20a1,1,0,0,1-1,1H12" style="fill: none; stroke: rgb(0, 0, 0); stroke-linecap: round; stroke-linejoin: round; stroke-width: 2;"></path></svg>